<svg xmlns="http://www.w3.org/2000/svg" width="92" height="79" viewBox="0 0 92 79" fill="none">
  <g clip-path="url(#clip0_132_158)">
    <path d="M60.0672 39.1312L55.4702 49.5563H49.3369V39.1312H60.0672Z" fill="#202020"/>
    <path d="M79.3156 53.6133C76.8034 53.6109 74.3468 54.3539 72.257 55.7484C70.1671 57.1429 68.5378 59.1262 67.5753 61.4472C66.6128 63.7682 66.3603 66.3227 66.8498 68.7873C67.3393 71.2519 68.5489 73.5159 70.3253 75.2927C72.1017 77.0695 74.3652 78.2792 76.8293 78.7689C79.2934 79.2585 81.8473 79.006 84.1679 78.0432C86.4884 77.0805 88.4713 75.4509 89.8655 73.3606C91.2597 71.2703 92.0026 68.8133 92.0002 66.3005C92.0002 62.9356 90.6638 59.7086 88.2849 57.3293C85.9061 54.95 82.6798 53.6133 79.3156 53.6133ZM79.3156 73.9349C77.806 73.9349 76.3302 73.4872 75.075 72.6483C73.8198 71.8094 72.8415 70.6171 72.2637 69.2221C71.686 67.8271 71.5349 66.292 71.8294 64.8111C72.1239 63.3301 72.8509 61.9698 73.9183 60.9021C74.9858 59.8344 76.3459 59.1073 77.8265 58.8127C79.3071 58.5182 80.8418 58.6693 82.2366 59.2472C83.6313 59.825 84.8234 60.8035 85.6621 62.059C86.5008 63.3145 86.9485 64.7905 86.9485 66.3005C86.9485 67.3031 86.751 68.2958 86.3674 69.2221C85.9839 70.1483 85.4216 70.9899 84.7128 71.6989C84.0041 72.4078 83.1626 72.9701 82.2366 73.3538C81.3105 73.7375 80.318 73.9349 79.3156 73.9349Z" fill="#202020"/>
    <path d="M66.5323 58.9365C66.5323 43.5201 71.5963 34.8652 75.9105 32.1237C76.6056 31.63 77.4208 31.3327 78.2704 31.2632C78.5877 31.2669 78.9042 31.2956 79.2169 31.3492C80.6181 31.6074 82.9042 32.7138 82.9042 37.2871V52.0028C84.3832 52.3829 85.7933 52.9927 87.0833 53.81V22.9034C87.0833 18.3915 85.1904 14.6419 79.8929 13.9289C79.2616 13.8423 78.6249 13.8012 77.9877 13.8059C76.415 13.8977 74.8787 14.3164 73.4769 15.0353C64.873 19.0062 51.2911 33.1072 51.2911 62.6861C51.2846 63.8901 51.5171 65.0835 51.9751 66.1969C52.4331 67.3104 53.1076 68.3219 53.9593 69.1727C54.8111 70.0235 55.8233 70.6967 56.9371 71.1533C58.051 71.6099 59.2444 71.8409 60.4481 71.8327H65.5982C64.7663 69.7635 64.418 67.5315 64.5799 65.3072C64.7418 63.0829 65.4096 60.9249 66.5323 58.998V58.9365Z" fill="#202020"/>
    <path d="M78.8607 33.4269C78.6683 33.4142 78.4753 33.4142 78.283 33.4269C77.8362 33.4842 77.4123 33.658 77.0538 33.9309C74.1285 35.775 69.3227 42.4751 68.6958 56.1335C70.0717 54.6966 71.7239 53.5529 73.5531 52.7712C75.3824 51.9894 77.3508 51.5859 79.34 51.5848C79.8657 51.5825 80.391 51.6112 80.9133 51.6709V37.324C80.8887 34.9513 80.2127 33.7219 78.8607 33.4269Z" fill="#F1BA0A"/>
    <path d="M22.665 79H17.4781V11.6914C17.4057 10.1126 17.654 8.53549 18.2081 7.0554C18.7623 5.5753 19.6107 4.22294 20.7021 3.08005C21.7935 1.93716 23.1053 1.02747 24.5581 0.405946C26.0109 -0.215575 27.5747 -0.536018 29.1548 -0.536018C30.7349 -0.536018 32.2987 -0.215575 33.7515 0.405946C35.2043 1.02747 36.5161 1.93716 37.6075 3.08005C38.6989 4.22294 39.5473 5.5753 40.1015 7.0554C40.6556 8.53549 40.9039 10.1126 40.8315 11.6914V35.6274H35.6446V11.6914C35.6446 9.96659 34.9596 8.31242 33.7402 7.09279C32.5208 5.87316 30.867 5.18798 29.1425 5.18798C27.4181 5.18798 25.7642 5.87316 24.5448 7.09279C23.3255 8.31242 22.6405 9.96659 22.6405 11.6914L22.665 79Z" fill="#F1BA0A"/>
    <path d="M47.3584 47.0853C44.2583 47.0853 41.2852 45.8535 39.0931 43.6609C36.9009 41.4684 35.6694 38.4946 35.6694 35.3939H40.8563C40.8563 37.1187 41.5414 38.7729 42.7608 39.9925C43.9801 41.2121 45.634 41.8973 47.3584 41.8973V47.0853Z" fill="#F1BA0A"/>
    <path d="M30.6175 69.4723H9.52572C6.99934 69.4723 4.57643 70.4761 2.79001 72.2629C1.00359 74.0497 0 76.4731 0 79H40.1678C40.1678 77.7467 39.9206 76.5058 39.4403 75.3482C38.9601 74.1907 38.2562 73.1392 37.3691 72.2542C36.4819 71.3691 35.4289 70.6679 34.2704 70.1905C33.1118 69.7131 31.8705 69.4691 30.6175 69.4723Z" fill="#202020"/>
    <path d="M25.7254 64.063H14.4175V70.8492H25.7254V64.063Z" fill="#202020"/>
  </g>
  <defs>
    <clipPath id="clip0_132_158">
      <rect width="92" height="79" fill="white"/>
    </clipPath>
  </defs>
</svg>
