<svg xmlns="http://www.w3.org/2000/svg" width="81" height="79" viewBox="0 0 81 79" fill="none">
  <g clip-path="url(#clip0_132_202)">
    <path d="M39.392 52.9116L16.9592 4.62977L15.522 5.3279L5.94043 9.95766L7.25788 12.7992L14.3482 9.34526L35.4276 54.6631C36.6535 53.875 37.9906 53.2843 39.392 52.9116Z" fill="#202020"/>
    <path d="M56.8904 61.8527L75.1552 52.9851L73.3228 49.0535L54.7705 58.0681C55.6507 59.2193 56.3646 60.4939 56.8904 61.8527Z" fill="#202020"/>
    <path d="M43.3085 52.336C46.7747 52.3338 50.1286 53.5928 52.7702 55.8879L81.0358 42.2191L66.3521 10.4843L30.9243 27.6316L42.3743 52.3972C42.6497 52.3359 42.9611 52.336 43.3085 52.336Z" fill="#F1BA0A"/>
    <path d="M45.3187 -0.00112469L23.3286 10.6337L29.9953 25.0499L51.9854 14.4151L45.3187 -0.00112469Z" fill="#F1BA0A"/>
    <path d="M10.3114 6.69047L0.00244141 11.7009L2.44447 16.9554L12.7534 11.945L10.3114 6.69047Z" fill="#F1BA0A"/>
    <path d="M21.321 22.524L19.438 23.4371L21.5933 28.0852L23.4763 27.172L21.321 22.524Z" fill="#F1BA0A"/>
    <path d="M30.7818 42.9238L28.8999 43.8393L31.0608 48.4847L32.9427 47.5692L30.7818 42.9238Z" fill="#F1BA0A"/>
    <path d="M43.3085 55.6674C41.0511 55.6674 38.8443 56.352 36.9673 57.6346C35.0902 58.9172 33.6273 60.7402 32.7634 62.873C31.8995 65.0059 31.6734 67.3528 32.1139 69.617C32.5543 71.8813 33.6413 73.9611 35.2376 75.5935C36.8339 77.2259 38.8677 78.3376 41.0818 78.788C43.2959 79.2384 45.5909 79.0072 47.6765 78.1237C49.7621 77.2403 51.5448 75.7442 52.799 73.8247C54.0531 71.9052 54.7226 69.6484 54.7226 67.3398C54.7226 64.2441 53.52 61.2752 51.3795 59.0862C49.2389 56.8972 46.3357 55.6674 43.3085 55.6674ZM43.3085 75.9747C41.6385 75.9747 40.006 75.4683 38.6175 74.5195C37.2289 73.5707 36.1466 72.2221 35.5075 70.6443C34.8685 69.0664 34.7013 67.3303 35.0271 65.6552C35.3529 63.9802 36.157 62.4417 37.3379 61.2341C38.5188 60.0264 40.0233 59.204 41.6613 58.8709C43.2992 58.5377 44.9969 58.7087 46.5398 59.3623C48.0827 60.0158 49.4015 61.1226 50.3293 62.5425C51.2571 63.9625 51.7523 65.632 51.7523 67.3398C51.7523 69.63 50.8627 71.8263 49.2792 73.4456C47.6957 75.065 45.548 75.9747 43.3085 75.9747Z" fill="#202020"/>
    <path d="M48.758 67.3398C48.758 68.4493 48.4363 69.5339 47.8335 70.4564C47.2308 71.3789 46.3741 72.0979 45.3717 72.5224C44.3694 72.947 43.2665 73.0581 42.2024 72.8417C41.1383 72.6252 40.1609 72.091 39.3938 71.3064C38.6266 70.5219 38.1042 69.5224 37.8925 68.4342C37.6809 67.3461 37.7895 66.2182 38.2047 65.1931C38.6199 64.1681 39.3229 63.292 40.225 62.6756C41.1271 62.0592 42.1876 61.7302 43.2726 61.7302C44.7274 61.7302 46.1226 62.3212 47.1513 63.3732C48.1801 64.4252 48.758 65.8521 48.758 67.3398Z" fill="#202020"/>
    <path d="M56.4644 41.9961L44.186 47.9905L44.8362 49.3832L57.1145 43.3888L56.4644 41.9961Z" fill="#202020"/>
    <path d="M41.9193 39.8919L44.6261 38.5692L47.5126 44.7667L44.8058 46.0894L41.9193 39.8919ZM40.4103 33.1065L39.9072 39.4755L45.5603 36.7074L40.4103 33.1065Z" fill="#202020"/>
    <path d="M49.0578 36.4135L51.7645 35.0907L54.663 41.2882L51.9562 42.611L49.0578 36.4135ZM47.5487 29.6281L47.0576 35.9971L52.7107 33.2412L47.5487 29.6281Z" fill="#202020"/>
    <path d="M69.6578 24.7534C68.4169 23.6001 66.8683 22.8508 65.2094 22.6009C63.5506 22.351 61.8565 22.6118 60.3431 23.3502C58.8298 24.0885 57.5656 25.2709 56.7118 26.7467C55.858 28.2225 55.4532 29.9248 55.5489 31.6368L69.6578 24.7534Z" fill="#202020"/>
    <path d="M69.1547 37.5036C68.8625 37.673 68.5396 37.7799 68.2058 37.8179C67.8719 37.8559 67.534 37.8241 67.2126 37.7244C66.8911 37.6248 66.5928 37.4593 66.3358 37.2382C66.0787 37.0171 65.8683 36.7448 65.7173 36.438L62.5913 29.7628L63.8489 29.1504L66.9629 35.8256C67.418 36.7687 68.5079 36.2543 68.5558 36.2298C68.8115 36.098 69.007 35.8696 69.1009 35.593C69.1948 35.3163 69.1797 35.0132 69.0588 34.7478L70.3164 34.1476C70.596 34.7504 70.6307 35.4419 70.413 36.0708C70.1953 36.6998 69.7428 37.2149 69.1547 37.5036Z" fill="#202020"/>
  </g>
  <defs>
    <clipPath id="clip0_132_202">
      <rect width="81" height="79" fill="white"/>
    </clipPath>
  </defs>
</svg>
